<?xml version="1.0" standalone="no"?>
<!DOCTYPE svg PUBLIC "-//W3C//DTD SVG 20010904//EN"
 "http://www.w3.org/TR/2001/REC-SVG-20010904/DTD/svg10.dtd">
<svg version="1.0" xmlns="http://www.w3.org/2000/svg"
 width="512.000000pt" height="512.000000pt" viewBox="0 0 512.000000 512.000000"
 preserveAspectRatio="xMidYMid meet">
<metadata>
Created by potrace 1.16, written by Peter Selinger 2001-2019
</metadata>
<g transform="translate(0.000000,512.000000) scale(0.100000,-0.100000)"
fill="#213547" stroke="none">
<path d="M2285 4789 c-737 -93 -1384 -544 -1720 -1201 -106 -206 -176 -416
-221 -663 -27 -144 -27 -586 0 -730 87 -476 284 -866 606 -1199 356 -368 832
-603 1350 -666 121 -14 427 -12 550 4 488 66 923 276 1274 616 403 390 647
925 674 1477 17 338 -31 652 -144 941 -302 773 -981 1307 -1804 1418 -116 15
-451 17 -565 3z m536 -335 c406 -56 774 -235 1067 -518 450 -434 662 -1058
566 -1666 -85 -543 -399 -1026 -861 -1324 -179 -115 -444 -222 -658 -265 -677
-136 -1388 114 -1832 642 -486 580 -590 1377 -269 2052 278 583 814 980 1456
1078 130 20 392 21 531 1z"/>
<path d="M3186 3396 c-30 -11 -113 -89 -333 -308 l-293 -293 -287 287 c-159
157 -298 291 -311 298 -54 27 -154 9 -193 -36 -41 -47 -55 -135 -29 -186 7
-13 141 -152 298 -310 l285 -286 -289 -297 c-159 -163 -294 -306 -301 -318
-19 -34 -16 -117 6 -157 36 -69 140 -100 214 -64 18 8 161 147 319 307 l286
292 299 -297 c164 -163 311 -302 326 -308 96 -35 200 19 226 116 6 23 9 48 7
55 -2 8 -7 28 -11 44 -4 22 -83 106 -308 328 l-302 297 292 288 c160 158 299
301 307 319 22 44 20 98 -5 149 -36 74 -124 109 -203 80z"/>
</g>
</svg>
